<mxfile host="app.diagrams.net" agent="Mozilla/5.0 (Windows NT 10.0; Win64; x64) AppleWebKit/537.36 (KHTML, like Gecko) Chrome/129.0.0.0 Safari/537.36" version="24.7.17">
  <diagram name="1 oldal" id="J2MF9AmRKNOul0yk5mM1">
    <mxGraphModel dx="1509" dy="777" grid="1" gridSize="10" guides="1" tooltips="1" connect="1" arrows="1" fold="1" page="1" pageScale="1" pageWidth="827" pageHeight="1169" math="0" shadow="0">
      <root>
        <mxCell id="0" />
        <mxCell id="1" parent="0" />
        <mxCell id="wyokAzy08yg_HZJgm6T4-3" value="" style="edgeStyle=orthogonalEdgeStyle;rounded=0;orthogonalLoop=1;jettySize=auto;html=1;" edge="1" parent="1" source="wyokAzy08yg_HZJgm6T4-1" target="wyokAzy08yg_HZJgm6T4-2">
          <mxGeometry relative="1" as="geometry" />
        </mxCell>
        <mxCell id="wyokAzy08yg_HZJgm6T4-1" value="&lt;font style=&quot;font-size: 20px;&quot;&gt;Student enrols&lt;/font&gt;" style="rounded=1;whiteSpace=wrap;html=1;" vertex="1" parent="1">
          <mxGeometry x="325.5" y="10" width="163" height="60" as="geometry" />
        </mxCell>
        <mxCell id="wyokAzy08yg_HZJgm6T4-16" value="" style="edgeStyle=orthogonalEdgeStyle;rounded=0;orthogonalLoop=1;jettySize=auto;html=1;" edge="1" parent="1" source="wyokAzy08yg_HZJgm6T4-2" target="wyokAzy08yg_HZJgm6T4-15">
          <mxGeometry relative="1" as="geometry" />
        </mxCell>
        <mxCell id="wyokAzy08yg_HZJgm6T4-2" value="&lt;font style=&quot;font-size: 20px;&quot;&gt;Event Queue&lt;/font&gt;" style="whiteSpace=wrap;html=1;rounded=1;" vertex="1" parent="1">
          <mxGeometry x="340" y="150" width="134" height="60" as="geometry" />
        </mxCell>
        <mxCell id="wyokAzy08yg_HZJgm6T4-8" value="&lt;ul style=&quot;font-size: 14px;&quot;&gt;&lt;li&gt;&lt;span style=&quot;background-color: initial;&quot;&gt;&lt;font face=&quot;Helvetica&quot;&gt;X tárgyat Y hallgató felakarja venni&lt;/font&gt;&lt;/span&gt;&lt;/li&gt;&lt;li&gt;&lt;span style=&quot;background-color: initial;&quot;&gt;&lt;span style=&quot;line-height: 107%;&quot;&gt;&lt;font face=&quot;Helvetica&quot;&gt;Tartozás miatt Y hallgató fizet&lt;/font&gt;&lt;/span&gt;&lt;br&gt;&lt;/span&gt;&lt;/li&gt;&lt;li&gt;&lt;span style=&quot;background-color: initial;&quot;&gt;&lt;span style=&quot;line-height: 107%;&quot;&gt;&lt;span style=&quot;line-height: 107%;&quot;&gt;&lt;font face=&quot;Helvetica&quot;&gt;Nem aktív státusz miatt Y hallgató aktívra vált&lt;/font&gt;&lt;/span&gt;&lt;br&gt;&lt;/span&gt;&lt;/span&gt;&lt;/li&gt;&lt;/ul&gt;" style="rounded=0;whiteSpace=wrap;html=1;align=left;" vertex="1" parent="1">
          <mxGeometry x="550" y="160" width="270" height="90" as="geometry" />
        </mxCell>
        <mxCell id="wyokAzy08yg_HZJgm6T4-9" value="" style="endArrow=none;html=1;rounded=0;exitX=1;exitY=0.5;exitDx=0;exitDy=0;entryX=0;entryY=0.5;entryDx=0;entryDy=0;" edge="1" parent="1" source="wyokAzy08yg_HZJgm6T4-2" target="wyokAzy08yg_HZJgm6T4-8">
          <mxGeometry width="50" height="50" relative="1" as="geometry">
            <mxPoint x="390" y="100" as="sourcePoint" />
            <mxPoint x="440" y="50" as="targetPoint" />
            <Array as="points" />
          </mxGeometry>
        </mxCell>
        <mxCell id="wyokAzy08yg_HZJgm6T4-10" value="&lt;font style=&quot;font-size: 20px;&quot;&gt;Student changes status&lt;/font&gt;" style="rounded=1;whiteSpace=wrap;html=1;" vertex="1" parent="1">
          <mxGeometry x="640" y="10" width="180" height="60" as="geometry" />
        </mxCell>
        <mxCell id="wyokAzy08yg_HZJgm6T4-11" value="&lt;font style=&quot;font-size: 20px;&quot;&gt;Student pays&lt;/font&gt;" style="whiteSpace=wrap;html=1;rounded=1;" vertex="1" parent="1">
          <mxGeometry x="10" y="10" width="150" height="60" as="geometry" />
        </mxCell>
        <mxCell id="wyokAzy08yg_HZJgm6T4-13" value="" style="endArrow=classic;html=1;rounded=0;exitX=0.5;exitY=1;exitDx=0;exitDy=0;entryX=0.25;entryY=0;entryDx=0;entryDy=0;" edge="1" parent="1" source="wyokAzy08yg_HZJgm6T4-11" target="wyokAzy08yg_HZJgm6T4-2">
          <mxGeometry width="50" height="50" relative="1" as="geometry">
            <mxPoint x="410" y="260" as="sourcePoint" />
            <mxPoint x="460" y="210" as="targetPoint" />
            <Array as="points">
              <mxPoint x="85" y="110" />
              <mxPoint x="230" y="110" />
              <mxPoint x="374" y="110" />
            </Array>
          </mxGeometry>
        </mxCell>
        <mxCell id="wyokAzy08yg_HZJgm6T4-14" value="" style="endArrow=classic;html=1;rounded=0;exitX=0.5;exitY=1;exitDx=0;exitDy=0;entryX=0.75;entryY=0;entryDx=0;entryDy=0;" edge="1" parent="1" source="wyokAzy08yg_HZJgm6T4-10" target="wyokAzy08yg_HZJgm6T4-2">
          <mxGeometry width="50" height="50" relative="1" as="geometry">
            <mxPoint x="440" y="82" as="sourcePoint" />
            <mxPoint x="737" y="140" as="targetPoint" />
            <Array as="points">
              <mxPoint x="730" y="110" />
              <mxPoint x="580" y="110" />
              <mxPoint x="441" y="110" />
            </Array>
          </mxGeometry>
        </mxCell>
        <mxCell id="wyokAzy08yg_HZJgm6T4-15" value="&lt;font style=&quot;font-size: 20px;&quot;&gt;Event Mediator&lt;/font&gt;" style="whiteSpace=wrap;html=1;rounded=1;" vertex="1" parent="1">
          <mxGeometry x="331.5" y="280" width="151" height="60" as="geometry" />
        </mxCell>
        <mxCell id="wyokAzy08yg_HZJgm6T4-17" value="&lt;span style=&quot;background-color: initial; font-size: 14px;&quot;&gt;&lt;span style=&quot;font-size: 14px;&quot;&gt;-&amp;nbsp;&lt;/span&gt;&lt;/span&gt;&lt;font style=&quot;font-size: 14px;&quot;&gt;&lt;span style=&quot;line-height: 107%;&quot;&gt;X tárgynak vannak előkövetelményei&lt;/span&gt;&lt;br&gt;&lt;span style=&quot;font-family: XqdR5e0AjKfIXeO-QAb3; line-height: 107%;&quot;&gt;-&amp;nbsp;&lt;/span&gt;&lt;span style=&quot;line-height: 107%;&quot;&gt;&lt;font style=&quot;font-size: 14px;&quot; face=&quot;Helvetica&quot;&gt;Y hallgató aktív-e&lt;/font&gt;&lt;/span&gt;&lt;/font&gt;&lt;br&gt;&lt;div style=&quot;font-size: 14px;&quot;&gt;&lt;font style=&quot;font-size: 14px;&quot;&gt;&lt;span style=&quot;line-height: 107%;&quot;&gt;&lt;font style=&quot;font-size: 14px;&quot; face=&quot;Helvetica&quot;&gt;-&amp;nbsp;&lt;/font&gt;&lt;/span&gt;&lt;/font&gt;&lt;span style=&quot;background-color: initial;&quot;&gt;&lt;font face=&quot;Helvetica&quot;&gt;Y hallgatónak van-e tartozása&lt;/font&gt;&lt;/span&gt;&lt;/div&gt;&lt;div&gt;&lt;span style=&quot;font-family: Calibri, sans-serif; font-size: 12pt; background-color: initial;&quot;&gt;-&amp;nbsp;&lt;/span&gt;&lt;span style=&quot;font-size: 14px; background-color: initial;&quot;&gt;&lt;font style=&quot;font-size: 14px;&quot; face=&quot;Helvetica&quot;&gt;X tárgyon van-e még szabad hely&lt;/font&gt;&lt;/span&gt;&lt;/div&gt;&lt;div&gt;&lt;span style=&quot;font-family: Calibri, sans-serif; font-size: 12pt; background-color: initial;&quot;&gt;-&amp;nbsp;&lt;/span&gt;&lt;span style=&quot;font-size: 14px; background-color: initial;&quot;&gt;&lt;font style=&quot;font-size: 14px;&quot; face=&quot;Helvetica&quot;&gt;X tárgy hozzárendelése Y hallgatóhoz&lt;/font&gt;&lt;/span&gt;&lt;/div&gt;&lt;div&gt;&lt;span style=&quot;font-family: Calibri, sans-serif; font-size: 12pt; background-color: initial;&quot;&gt;-&amp;nbsp;&lt;/span&gt;&lt;span style=&quot;font-size: 14px; background-color: initial;&quot;&gt;&lt;font style=&quot;font-size: 14px;&quot; face=&quot;Helvetica&quot;&gt;Y hallgatónak értesítés küldése sikeres&amp;nbsp; &amp;nbsp; &amp;nbsp; &amp;nbsp; tárgyfelvételről, sikertelen esetén annak&amp;nbsp; &amp;nbsp; &amp;nbsp; &amp;nbsp; okáról&lt;/font&gt;&lt;/span&gt;&lt;/div&gt;" style="rounded=0;whiteSpace=wrap;html=1;align=left;" vertex="1" parent="1">
          <mxGeometry x="10" y="160" width="280" height="240" as="geometry" />
        </mxCell>
        <mxCell id="wyokAzy08yg_HZJgm6T4-18" value="" style="endArrow=none;html=1;rounded=0;exitX=1;exitY=0.5;exitDx=0;exitDy=0;entryX=0;entryY=0.5;entryDx=0;entryDy=0;" edge="1" parent="1" source="wyokAzy08yg_HZJgm6T4-17" target="wyokAzy08yg_HZJgm6T4-15">
          <mxGeometry width="50" height="50" relative="1" as="geometry">
            <mxPoint x="410" y="250" as="sourcePoint" />
            <mxPoint x="460" y="200" as="targetPoint" />
          </mxGeometry>
        </mxCell>
        <mxCell id="wyokAzy08yg_HZJgm6T4-22" style="edgeStyle=orthogonalEdgeStyle;rounded=0;orthogonalLoop=1;jettySize=auto;html=1;exitX=0.75;exitY=1;exitDx=0;exitDy=0;" edge="1" parent="1" source="wyokAzy08yg_HZJgm6T4-19">
          <mxGeometry relative="1" as="geometry">
            <mxPoint x="120" y="520" as="targetPoint" />
          </mxGeometry>
        </mxCell>
        <mxCell id="wyokAzy08yg_HZJgm6T4-19" value="&lt;font style=&quot;font-size: 20px;&quot;&gt;Prerequisite Check Channel&lt;/font&gt;" style="whiteSpace=wrap;html=1;rounded=1;" vertex="1" parent="1">
          <mxGeometry x="10" y="470" width="151" height="60" as="geometry" />
        </mxCell>
        <mxCell id="wyokAzy08yg_HZJgm6T4-20" value="&lt;font style=&quot;font-size: 20px;&quot;&gt;Student Status Check Channel&lt;/font&gt;" style="whiteSpace=wrap;html=1;rounded=1;" vertex="1" parent="1">
          <mxGeometry x="169" y="470" width="151" height="60" as="geometry" />
        </mxCell>
        <mxCell id="wyokAzy08yg_HZJgm6T4-21" value="&lt;font style=&quot;font-size: 20px;&quot;&gt;Student Debt Check Channel&lt;/font&gt;" style="whiteSpace=wrap;html=1;rounded=1;" vertex="1" parent="1">
          <mxGeometry x="331.5" y="470" width="151" height="60" as="geometry" />
        </mxCell>
        <mxCell id="wyokAzy08yg_HZJgm6T4-23" value="&lt;font style=&quot;font-size: 20px;&quot;&gt;Course Availability Check Channel&lt;/font&gt;" style="whiteSpace=wrap;html=1;rounded=1;" vertex="1" parent="1">
          <mxGeometry x="489" y="460" width="151" height="80" as="geometry" />
        </mxCell>
        <mxCell id="wyokAzy08yg_HZJgm6T4-24" value="&lt;font style=&quot;font-size: 20px;&quot;&gt;Enrolment Channel&lt;/font&gt;" style="whiteSpace=wrap;html=1;rounded=1;" vertex="1" parent="1">
          <mxGeometry x="650" y="470" width="151" height="60" as="geometry" />
        </mxCell>
        <mxCell id="wyokAzy08yg_HZJgm6T4-25" value="&lt;font style=&quot;font-size: 20px;&quot;&gt;Notify Student Channel&lt;/font&gt;" style="whiteSpace=wrap;html=1;rounded=1;" vertex="1" parent="1">
          <mxGeometry x="121.5" y="910" width="151" height="60" as="geometry" />
        </mxCell>
        <mxCell id="wyokAzy08yg_HZJgm6T4-26" value="&lt;font style=&quot;font-size: 20px;&quot;&gt;Pay Debt Channel&lt;/font&gt;" style="whiteSpace=wrap;html=1;rounded=1;" vertex="1" parent="1">
          <mxGeometry x="331.5" y="910" width="151" height="60" as="geometry" />
        </mxCell>
        <mxCell id="wyokAzy08yg_HZJgm6T4-27" value="&lt;font style=&quot;font-size: 20px;&quot;&gt;Change Status Channel&lt;/font&gt;" style="whiteSpace=wrap;html=1;rounded=1;" vertex="1" parent="1">
          <mxGeometry x="541.5" y="910" width="151" height="60" as="geometry" />
        </mxCell>
        <mxCell id="wyokAzy08yg_HZJgm6T4-29" value="" style="edgeStyle=orthogonalEdgeStyle;rounded=0;orthogonalLoop=1;jettySize=auto;html=1;entryX=0.5;entryY=0;entryDx=0;entryDy=0;" edge="1" parent="1">
          <mxGeometry relative="1" as="geometry">
            <mxPoint x="407" y="340" as="sourcePoint" />
            <mxPoint x="407.25" y="470" as="targetPoint" />
            <Array as="points">
              <mxPoint x="406.25" y="390" />
              <mxPoint x="407.25" y="390" />
            </Array>
          </mxGeometry>
        </mxCell>
        <mxCell id="wyokAzy08yg_HZJgm6T4-31" value="" style="edgeStyle=orthogonalEdgeStyle;rounded=0;orthogonalLoop=1;jettySize=auto;html=1;" edge="1" parent="1">
          <mxGeometry relative="1" as="geometry">
            <mxPoint x="400" y="420" as="sourcePoint" />
            <mxPoint x="580" y="460" as="targetPoint" />
            <Array as="points">
              <mxPoint x="580" y="420" />
            </Array>
          </mxGeometry>
        </mxCell>
        <mxCell id="wyokAzy08yg_HZJgm6T4-32" value="" style="edgeStyle=orthogonalEdgeStyle;rounded=0;orthogonalLoop=1;jettySize=auto;html=1;" edge="1" parent="1">
          <mxGeometry relative="1" as="geometry">
            <mxPoint x="730" y="420" as="sourcePoint" />
            <mxPoint x="406.5" y="910" as="targetPoint" />
            <Array as="points">
              <mxPoint x="730" y="420" />
              <mxPoint x="820" y="420" />
              <mxPoint x="820" y="850" />
              <mxPoint x="407" y="850" />
            </Array>
          </mxGeometry>
        </mxCell>
        <mxCell id="wyokAzy08yg_HZJgm6T4-33" value="" style="edgeStyle=orthogonalEdgeStyle;rounded=0;orthogonalLoop=1;jettySize=auto;html=1;" edge="1" parent="1">
          <mxGeometry relative="1" as="geometry">
            <mxPoint x="511.5" y="850" as="sourcePoint" />
            <mxPoint x="611.5" y="910" as="targetPoint" />
            <Array as="points">
              <mxPoint x="611.5" y="870" />
              <mxPoint x="611.5" y="870" />
            </Array>
          </mxGeometry>
        </mxCell>
        <mxCell id="wyokAzy08yg_HZJgm6T4-34" value="" style="edgeStyle=orthogonalEdgeStyle;rounded=0;orthogonalLoop=1;jettySize=auto;html=1;entryX=0.536;entryY=0;entryDx=0;entryDy=0;entryPerimeter=0;" edge="1" parent="1" target="wyokAzy08yg_HZJgm6T4-24">
          <mxGeometry relative="1" as="geometry">
            <mxPoint x="580" y="420" as="sourcePoint" />
            <mxPoint x="750" y="450" as="targetPoint" />
            <Array as="points">
              <mxPoint x="731" y="420" />
            </Array>
          </mxGeometry>
        </mxCell>
        <mxCell id="wyokAzy08yg_HZJgm6T4-35" value="" style="edgeStyle=orthogonalEdgeStyle;rounded=0;orthogonalLoop=1;jettySize=auto;html=1;" edge="1" parent="1">
          <mxGeometry relative="1" as="geometry">
            <mxPoint x="411.5" y="850" as="sourcePoint" />
            <mxPoint x="192" y="910" as="targetPoint" />
            <Array as="points">
              <mxPoint x="192" y="870" />
              <mxPoint x="192" y="870" />
            </Array>
          </mxGeometry>
        </mxCell>
        <mxCell id="wyokAzy08yg_HZJgm6T4-38" value="" style="endArrow=classic;html=1;rounded=0;entryX=0.469;entryY=-0.025;entryDx=0;entryDy=0;entryPerimeter=0;" edge="1" parent="1" target="wyokAzy08yg_HZJgm6T4-20">
          <mxGeometry width="50" height="50" relative="1" as="geometry">
            <mxPoint x="400" y="420" as="sourcePoint" />
            <mxPoint x="280" y="400" as="targetPoint" />
            <Array as="points">
              <mxPoint x="240" y="420" />
            </Array>
          </mxGeometry>
        </mxCell>
        <mxCell id="wyokAzy08yg_HZJgm6T4-39" value="" style="endArrow=classic;html=1;rounded=0;entryX=0.463;entryY=-0.009;entryDx=0;entryDy=0;entryPerimeter=0;" edge="1" parent="1" target="wyokAzy08yg_HZJgm6T4-19">
          <mxGeometry width="50" height="50" relative="1" as="geometry">
            <mxPoint x="240" y="420" as="sourcePoint" />
            <mxPoint x="100" y="400" as="targetPoint" />
            <Array as="points">
              <mxPoint x="80" y="420" />
            </Array>
          </mxGeometry>
        </mxCell>
        <mxCell id="wyokAzy08yg_HZJgm6T4-41" value="&lt;span style=&quot;line-height: 107%; font-size: 18px;&quot;&gt;&lt;font face=&quot;Helvetica&quot; style=&quot;font-size: 18px;&quot;&gt;P. C.&lt;/font&gt;&lt;/span&gt;&lt;div&gt;&lt;span style=&quot;line-height: 107%; font-size: 18px;&quot;&gt;&lt;font face=&quot;Helvetica&quot; style=&quot;font-size: 18px;&quot;&gt;Processor&lt;/font&gt;&lt;/span&gt;&lt;/div&gt;" style="whiteSpace=wrap;html=1;rounded=1;" vertex="1" parent="1">
          <mxGeometry x="10" y="620" width="151" height="60" as="geometry" />
        </mxCell>
        <mxCell id="wyokAzy08yg_HZJgm6T4-42" value="&lt;span style=&quot;font-size: 20px;&quot;&gt;S. S. C. Processor&lt;/span&gt;" style="whiteSpace=wrap;html=1;rounded=1;" vertex="1" parent="1">
          <mxGeometry x="169" y="620" width="161" height="60" as="geometry" />
        </mxCell>
        <mxCell id="wyokAzy08yg_HZJgm6T4-43" value="&lt;span style=&quot;line-height: 107%; font-size: 18px;&quot;&gt;&lt;font face=&quot;Helvetica&quot; style=&quot;font-size: 18px;&quot;&gt;S. D. C. Processor&lt;/font&gt;&lt;/span&gt;" style="whiteSpace=wrap;html=1;rounded=1;" vertex="1" parent="1">
          <mxGeometry x="340" y="620" width="151" height="60" as="geometry" />
        </mxCell>
        <mxCell id="wyokAzy08yg_HZJgm6T4-44" value="&lt;span style=&quot;line-height: 107%; font-size: 18px;&quot;&gt;&lt;font face=&quot;Helvetica&quot; style=&quot;font-size: 18px;&quot;&gt;C. A. C.&lt;/font&gt;&lt;/span&gt;&lt;div&gt;&lt;span style=&quot;line-height: 107%; font-size: 18px;&quot;&gt;&lt;font face=&quot;Helvetica&quot; style=&quot;font-size: 18px;&quot;&gt;Processor&lt;/font&gt;&lt;/span&gt;&lt;/div&gt;" style="whiteSpace=wrap;html=1;rounded=1;" vertex="1" parent="1">
          <mxGeometry x="499" y="620" width="151" height="60" as="geometry" />
        </mxCell>
        <mxCell id="wyokAzy08yg_HZJgm6T4-45" value="&lt;span style=&quot;line-height: 107%; font-size: 18px;&quot;&gt;&lt;font face=&quot;Helvetica&quot; style=&quot;font-size: 18px;&quot;&gt;Enrolment Processor&lt;/font&gt;&lt;/span&gt;" style="whiteSpace=wrap;html=1;rounded=1;" vertex="1" parent="1">
          <mxGeometry x="660" y="620" width="151" height="60" as="geometry" />
        </mxCell>
        <mxCell id="wyokAzy08yg_HZJgm6T4-46" value="&lt;font style=&quot;font-size: 20px;&quot;&gt;Notify Student Processor&lt;/font&gt;" style="whiteSpace=wrap;html=1;rounded=1;" vertex="1" parent="1">
          <mxGeometry x="121.5" y="1010" width="151" height="60" as="geometry" />
        </mxCell>
        <mxCell id="wyokAzy08yg_HZJgm6T4-47" value="&lt;font style=&quot;font-size: 20px;&quot;&gt;Pay Debt Processor&lt;/font&gt;" style="whiteSpace=wrap;html=1;rounded=1;" vertex="1" parent="1">
          <mxGeometry x="331.5" y="1010" width="151" height="60" as="geometry" />
        </mxCell>
        <mxCell id="wyokAzy08yg_HZJgm6T4-48" value="&lt;font style=&quot;font-size: 20px;&quot;&gt;Change Status Processor&lt;/font&gt;" style="whiteSpace=wrap;html=1;rounded=1;" vertex="1" parent="1">
          <mxGeometry x="541.5" y="1010" width="151" height="60" as="geometry" />
        </mxCell>
        <mxCell id="wyokAzy08yg_HZJgm6T4-49" value="" style="endArrow=classic;html=1;rounded=0;entryX=0.453;entryY=-0.036;entryDx=0;entryDy=0;entryPerimeter=0;" edge="1" parent="1" target="wyokAzy08yg_HZJgm6T4-46">
          <mxGeometry width="50" height="50" relative="1" as="geometry">
            <mxPoint x="190" y="970" as="sourcePoint" />
            <mxPoint x="190" y="1000" as="targetPoint" />
          </mxGeometry>
        </mxCell>
        <mxCell id="wyokAzy08yg_HZJgm6T4-50" value="" style="endArrow=classic;html=1;rounded=0;entryX=0.453;entryY=-0.036;entryDx=0;entryDy=0;entryPerimeter=0;" edge="1" parent="1">
          <mxGeometry width="50" height="50" relative="1" as="geometry">
            <mxPoint x="406.78999999999996" y="972" as="sourcePoint" />
            <mxPoint x="406.78999999999996" y="1010" as="targetPoint" />
          </mxGeometry>
        </mxCell>
        <mxCell id="wyokAzy08yg_HZJgm6T4-51" value="" style="endArrow=classic;html=1;rounded=0;entryX=0.453;entryY=-0.036;entryDx=0;entryDy=0;entryPerimeter=0;" edge="1" parent="1">
          <mxGeometry width="50" height="50" relative="1" as="geometry">
            <mxPoint x="610" y="970" as="sourcePoint" />
            <mxPoint x="610" y="1008" as="targetPoint" />
          </mxGeometry>
        </mxCell>
        <mxCell id="wyokAzy08yg_HZJgm6T4-52" value="" style="endArrow=classic;html=1;rounded=0;entryX=0.397;entryY=0;entryDx=0;entryDy=0;entryPerimeter=0;" edge="1" parent="1" target="wyokAzy08yg_HZJgm6T4-41">
          <mxGeometry width="50" height="50" relative="1" as="geometry">
            <mxPoint x="70" y="530" as="sourcePoint" />
            <mxPoint x="70" y="568" as="targetPoint" />
          </mxGeometry>
        </mxCell>
        <mxCell id="wyokAzy08yg_HZJgm6T4-53" value="" style="endArrow=classic;html=1;rounded=0;entryX=0.397;entryY=0;entryDx=0;entryDy=0;entryPerimeter=0;" edge="1" parent="1">
          <mxGeometry width="50" height="50" relative="1" as="geometry">
            <mxPoint x="240" y="530" as="sourcePoint" />
            <mxPoint x="240" y="620" as="targetPoint" />
          </mxGeometry>
        </mxCell>
        <mxCell id="wyokAzy08yg_HZJgm6T4-54" value="" style="endArrow=classic;html=1;rounded=0;entryX=0.397;entryY=0;entryDx=0;entryDy=0;entryPerimeter=0;" edge="1" parent="1">
          <mxGeometry width="50" height="50" relative="1" as="geometry">
            <mxPoint x="406.7" y="530" as="sourcePoint" />
            <mxPoint x="406.7" y="620" as="targetPoint" />
          </mxGeometry>
        </mxCell>
        <mxCell id="wyokAzy08yg_HZJgm6T4-55" value="" style="endArrow=classic;html=1;rounded=0;entryX=0.5;entryY=0;entryDx=0;entryDy=0;" edge="1" parent="1" target="wyokAzy08yg_HZJgm6T4-44">
          <mxGeometry width="50" height="50" relative="1" as="geometry">
            <mxPoint x="574.5" y="540" as="sourcePoint" />
            <mxPoint x="574.2" y="610" as="targetPoint" />
          </mxGeometry>
        </mxCell>
        <mxCell id="wyokAzy08yg_HZJgm6T4-56" value="" style="endArrow=classic;html=1;rounded=0;entryX=0.5;entryY=0;entryDx=0;entryDy=0;" edge="1" parent="1" target="wyokAzy08yg_HZJgm6T4-45">
          <mxGeometry width="50" height="50" relative="1" as="geometry">
            <mxPoint x="735.7" y="530" as="sourcePoint" />
            <mxPoint x="735.2" y="610" as="targetPoint" />
          </mxGeometry>
        </mxCell>
        <mxCell id="wyokAzy08yg_HZJgm6T4-59" value="" style="endArrow=classic;html=1;rounded=0;entryX=0.397;entryY=1;entryDx=0;entryDy=0;entryPerimeter=0;" edge="1" parent="1" target="wyokAzy08yg_HZJgm6T4-41">
          <mxGeometry width="50" height="50" relative="1" as="geometry">
            <mxPoint x="70" y="730" as="sourcePoint" />
            <mxPoint x="120" y="700" as="targetPoint" />
          </mxGeometry>
        </mxCell>
        <mxCell id="wyokAzy08yg_HZJgm6T4-71" value="Read" style="edgeLabel;html=1;align=center;verticalAlign=middle;resizable=0;points=[];" vertex="1" connectable="0" parent="wyokAzy08yg_HZJgm6T4-59">
          <mxGeometry x="-0.021" relative="1" as="geometry">
            <mxPoint as="offset" />
          </mxGeometry>
        </mxCell>
        <mxCell id="wyokAzy08yg_HZJgm6T4-61" value="" style="endArrow=classic;html=1;rounded=0;" edge="1" parent="1">
          <mxGeometry width="50" height="50" relative="1" as="geometry">
            <mxPoint x="237" y="720" as="sourcePoint" />
            <mxPoint x="237" y="680" as="targetPoint" />
            <Array as="points" />
          </mxGeometry>
        </mxCell>
        <mxCell id="wyokAzy08yg_HZJgm6T4-70" value="Read" style="edgeLabel;html=1;align=center;verticalAlign=middle;resizable=0;points=[];" vertex="1" connectable="0" parent="wyokAzy08yg_HZJgm6T4-61">
          <mxGeometry x="0.0026" relative="1" as="geometry">
            <mxPoint as="offset" />
          </mxGeometry>
        </mxCell>
        <mxCell id="wyokAzy08yg_HZJgm6T4-63" value="" style="endArrow=classic;html=1;rounded=0;entryX=0.397;entryY=1;entryDx=0;entryDy=0;entryPerimeter=0;" edge="1" parent="1">
          <mxGeometry width="50" height="50" relative="1" as="geometry">
            <mxPoint x="410" y="730" as="sourcePoint" />
            <mxPoint x="410" y="680" as="targetPoint" />
          </mxGeometry>
        </mxCell>
        <mxCell id="wyokAzy08yg_HZJgm6T4-72" value="Read" style="edgeLabel;html=1;align=center;verticalAlign=middle;resizable=0;points=[];" vertex="1" connectable="0" parent="wyokAzy08yg_HZJgm6T4-63">
          <mxGeometry x="0.0992" y="1" relative="1" as="geometry">
            <mxPoint as="offset" />
          </mxGeometry>
        </mxCell>
        <mxCell id="wyokAzy08yg_HZJgm6T4-65" value="&lt;span style=&quot;font-size: 18px;&quot;&gt;Redis&lt;/span&gt;" style="rounded=0;whiteSpace=wrap;html=1;" vertex="1" parent="1">
          <mxGeometry x="40" y="730" width="70" height="50" as="geometry" />
        </mxCell>
        <mxCell id="wyokAzy08yg_HZJgm6T4-66" value="&lt;span style=&quot;font-size: 18px;&quot;&gt;Redis&lt;/span&gt;" style="rounded=0;whiteSpace=wrap;html=1;" vertex="1" parent="1">
          <mxGeometry x="209.5" y="720" width="70" height="50" as="geometry" />
        </mxCell>
        <mxCell id="wyokAzy08yg_HZJgm6T4-67" value="&lt;span style=&quot;font-size: 18px;&quot;&gt;Redis&lt;/span&gt;" style="rounded=0;whiteSpace=wrap;html=1;" vertex="1" parent="1">
          <mxGeometry x="379" y="730" width="70" height="50" as="geometry" />
        </mxCell>
        <mxCell id="wyokAzy08yg_HZJgm6T4-68" value="&lt;font style=&quot;font-size: 16px;&quot;&gt;PostgreSQL&lt;/font&gt;" style="rounded=0;whiteSpace=wrap;html=1;" vertex="1" parent="1">
          <mxGeometry x="680" y="730" width="105" height="50" as="geometry" />
        </mxCell>
        <mxCell id="wyokAzy08yg_HZJgm6T4-69" value="" style="endArrow=classic;html=1;rounded=0;" edge="1" parent="1">
          <mxGeometry width="50" height="50" relative="1" as="geometry">
            <mxPoint x="735.2" y="680" as="sourcePoint" />
            <mxPoint x="736" y="730" as="targetPoint" />
          </mxGeometry>
        </mxCell>
        <mxCell id="wyokAzy08yg_HZJgm6T4-73" value="Write" style="edgeLabel;html=1;align=center;verticalAlign=middle;resizable=0;points=[];" vertex="1" connectable="0" parent="wyokAzy08yg_HZJgm6T4-69">
          <mxGeometry x="-0.1399" y="-1" relative="1" as="geometry">
            <mxPoint as="offset" />
          </mxGeometry>
        </mxCell>
        <mxCell id="wyokAzy08yg_HZJgm6T4-74" value="&lt;font style=&quot;font-size: 16px;&quot;&gt;PostgreSQL&lt;/font&gt;" style="rounded=0;whiteSpace=wrap;html=1;" vertex="1" parent="1">
          <mxGeometry x="650" y="1110" width="105" height="50" as="geometry" />
        </mxCell>
        <mxCell id="wyokAzy08yg_HZJgm6T4-75" value="" style="endArrow=classic;html=1;rounded=0;exitX=0.456;exitY=1.033;exitDx=0;exitDy=0;exitPerimeter=0;" edge="1" parent="1" source="wyokAzy08yg_HZJgm6T4-48">
          <mxGeometry width="50" height="50" relative="1" as="geometry">
            <mxPoint x="610" y="1080" as="sourcePoint" />
            <mxPoint x="700" y="1110" as="targetPoint" />
            <Array as="points">
              <mxPoint x="610" y="1090" />
              <mxPoint x="700" y="1090" />
            </Array>
          </mxGeometry>
        </mxCell>
        <mxCell id="wyokAzy08yg_HZJgm6T4-76" value="Write" style="edgeLabel;html=1;align=center;verticalAlign=middle;resizable=0;points=[];" vertex="1" connectable="0" parent="wyokAzy08yg_HZJgm6T4-75">
          <mxGeometry x="-0.0237" relative="1" as="geometry">
            <mxPoint as="offset" />
          </mxGeometry>
        </mxCell>
        <mxCell id="wyokAzy08yg_HZJgm6T4-78" value="" style="endArrow=none;html=1;rounded=0;exitX=0.454;exitY=1.004;exitDx=0;exitDy=0;exitPerimeter=0;" edge="1" parent="1" source="wyokAzy08yg_HZJgm6T4-47">
          <mxGeometry width="50" height="50" relative="1" as="geometry">
            <mxPoint x="400" y="1090" as="sourcePoint" />
            <mxPoint x="610" y="1090" as="targetPoint" />
            <Array as="points">
              <mxPoint x="400" y="1090" />
            </Array>
          </mxGeometry>
        </mxCell>
        <mxCell id="wyokAzy08yg_HZJgm6T4-79" value="Write" style="edgeLabel;html=1;align=center;verticalAlign=middle;resizable=0;points=[];" vertex="1" connectable="0" parent="wyokAzy08yg_HZJgm6T4-78">
          <mxGeometry x="0.0737" relative="1" as="geometry">
            <mxPoint as="offset" />
          </mxGeometry>
        </mxCell>
        <mxCell id="wyokAzy08yg_HZJgm6T4-80" value="" style="endArrow=none;html=1;rounded=0;" edge="1" parent="1">
          <mxGeometry width="50" height="50" relative="1" as="geometry">
            <mxPoint x="420" y="830" as="sourcePoint" />
            <mxPoint x="400" y="1090" as="targetPoint" />
            <Array as="points">
              <mxPoint x="50" y="830" />
              <mxPoint x="50" y="1090" />
            </Array>
          </mxGeometry>
        </mxCell>
        <mxCell id="wyokAzy08yg_HZJgm6T4-81" value="Write" style="edgeLabel;html=1;align=center;verticalAlign=middle;resizable=0;points=[];" vertex="1" connectable="0" parent="wyokAzy08yg_HZJgm6T4-80">
          <mxGeometry x="0.0066" relative="1" as="geometry">
            <mxPoint as="offset" />
          </mxGeometry>
        </mxCell>
        <mxCell id="wyokAzy08yg_HZJgm6T4-82" value="" style="endArrow=classic;html=1;rounded=0;" edge="1" parent="1">
          <mxGeometry width="50" height="50" relative="1" as="geometry">
            <mxPoint x="240" y="830" as="sourcePoint" />
            <mxPoint x="240" y="770" as="targetPoint" />
          </mxGeometry>
        </mxCell>
        <mxCell id="wyokAzy08yg_HZJgm6T4-83" value="" style="endArrow=classic;html=1;rounded=0;" edge="1" parent="1">
          <mxGeometry width="50" height="50" relative="1" as="geometry">
            <mxPoint x="420" y="830" as="sourcePoint" />
            <mxPoint x="420" y="780" as="targetPoint" />
          </mxGeometry>
        </mxCell>
      </root>
    </mxGraphModel>
  </diagram>
</mxfile>
